<?xml version="1.0" encoding="UTF-8"?>
<!DOCTYPE svg PUBLIC "-//W3C//DTD SVG 1.1//EN" "http://www.w3.org/Graphics/SVG/1.1/DTD/svg11.dtd">
<svg xmlns="http://www.w3.org/2000/svg" version="1.1" width="512px" height="512px" style="shape-rendering:geometricPrecision; text-rendering:geometricPrecision; image-rendering:optimizeQuality; fill-rule:evenodd; clip-rule:evenodd" xmlns:xlink="http://www.w3.org/1999/xlink">
<g><path style="opacity:0.998" fill="#00b2ff" d="M 111.5,-0.5 C 207.5,-0.5 303.5,-0.5 399.5,-0.5C 462.5,11.1667 499.833,48.5 511.5,111.5C 511.5,207.5 511.5,303.5 511.5,399.5C 499.833,462.5 462.5,499.833 399.5,511.5C 303.5,511.5 207.5,511.5 111.5,511.5C 48.5,499.833 11.1667,462.5 -0.5,399.5C -0.5,303.5 -0.5,207.5 -0.5,111.5C 11.1667,48.5 48.5,11.1667 111.5,-0.5 Z"/></g>
<g><path style="opacity:1" fill="#b7e9ff" d="M 183.5,126.5 C 158.833,126.5 134.167,126.5 109.5,126.5C 109.5,212.5 109.5,298.5 109.5,384.5C 130.167,384.5 150.833,384.5 171.5,384.5C 171.5,384.833 171.5,385.167 171.5,385.5C 150.5,385.5 129.5,385.5 108.5,385.5C 108.5,298.833 108.5,212.167 108.5,125.5C 133.672,125.169 158.672,125.502 183.5,126.5 Z"/></g>
<g><path style="opacity:1" fill="#fefeff" d="M 183.5,126.5 C 207.375,185.921 231.541,245.255 256,304.5C 280.124,245.296 303.958,185.963 327.5,126.5C 352.167,126.5 376.833,126.5 401.5,126.5C 401.5,212.5 401.5,298.5 401.5,384.5C 380.833,384.5 360.167,384.5 339.5,384.5C 339.667,333.166 339.5,281.832 339,230.5C 338.487,231.527 337.987,232.527 337.5,233.5C 318.273,283.955 299.606,334.622 281.5,385.5C 264.256,385.825 247.09,385.492 230,384.5C 211.257,334.099 192.423,283.766 173.5,233.5C 173.539,232.244 173.039,231.244 172,230.5C 171.5,281.832 171.333,333.166 171.5,384.5C 150.833,384.5 130.167,384.5 109.5,384.5C 109.5,298.5 109.5,212.5 109.5,126.5C 134.167,126.5 158.833,126.5 183.5,126.5 Z"/></g>
<g><path style="opacity:1" fill="#b7e9ff" d="M 327.5,126.5 C 352.328,125.502 377.328,125.169 402.5,125.5C 402.5,212.167 402.5,298.833 402.5,385.5C 381.5,385.5 360.5,385.5 339.5,385.5C 339.5,385.167 339.5,384.833 339.5,384.5C 360.167,384.5 380.833,384.5 401.5,384.5C 401.5,298.5 401.5,212.5 401.5,126.5C 376.833,126.5 352.167,126.5 327.5,126.5 Z"/></g>
<g><path style="opacity:1" fill="#5eceff" d="M 173.5,233.5 C 172.833,284.167 172.167,334.833 171.5,385.5C 171.5,385.167 171.5,384.833 171.5,384.5C 171.333,333.166 171.5,281.832 172,230.5C 173.039,231.244 173.539,232.244 173.5,233.5 Z"/></g>
<g><path style="opacity:1" fill="#5eceff" d="M 339.5,384.5 C 339.5,384.833 339.5,385.167 339.5,385.5C 338.833,334.833 338.167,284.167 337.5,233.5C 337.987,232.527 338.487,231.527 339,230.5C 339.5,281.832 339.667,333.166 339.5,384.5 Z"/></g>
</svg>
